<?xml version="1.0" encoding="utf-8"?><svg version="1.1" id="Layer_1" xmlns="http://www.w3.org/2000/svg" xmlns:xlink="http://www.w3.org/1999/xlink" x="0px" y="0px" viewBox="0 0 122.88 101.525" enable-background="new 0 0 122.88 101.525" xml:space="preserve"><g><path d="M9.943,0h102.986c2.727,0,5.211,1.118,7.016,2.919c1.811,1.808,2.936,4.294,2.936,7.023v81.642 c0,2.73-1.123,5.217-2.936,7.025c-1.802,1.799-4.285,2.916-7.016,2.916H9.943c-2.728,0-5.209-1.117-7.01-2.916L2.926,98.6 l-0.008,0.01C1.119,96.809,0,94.32,0,91.584V9.942c0-2.737,1.119-5.226,2.917-7.025l0.276-0.251C4.97,1.015,7.344,0,9.943,0 L9.943,0z M65.152,33.372h28.779v7.436H75.945v5.537h16.677v7.097H75.945v6.857h18.519v7.875H65.152V33.372L65.152,33.372 L65.152,33.372z M28.417,33.372h15.984c3.143,0,5.696,0.43,7.632,1.281c1.936,0.86,3.545,2.086,4.817,3.676 c1.262,1.6,2.179,3.461,2.75,5.584c0.57,2.123,0.86,4.368,0.86,6.744c0,3.723-0.421,6.602-1.272,8.651 c-0.841,2.049-2.02,3.77-3.526,5.154c-1.506,1.383-3.115,2.311-4.845,2.768c-2.357,0.637-4.499,0.945-6.407,0.945H28.417V33.372 L28.417,33.372L28.417,33.372z M39.154,41.246v19.006h2.638c2.254,0,3.854-0.254,4.817-0.748c0.944-0.506,1.693-1.367,2.235-2.609 c0.542-1.244,0.813-3.256,0.813-6.043c0-3.685-0.598-6.201-1.805-7.566c-1.207-1.356-3.208-2.039-6.004-2.039H39.154L39.154,41.246 L39.154,41.246z M112.929,7.95H9.943c-0.493,0-0.945,0.178-1.293,0.472L8.538,8.538C8.176,8.9,7.951,9.398,7.951,9.942v81.642 c0,0.543,0.225,1.043,0.587,1.404L8.53,92.996c0.362,0.357,0.862,0.58,1.413,0.58h102.986c0.56,0,1.064-0.225,1.427-0.586 c0.354-0.354,0.574-0.852,0.574-1.406V9.942c0-0.552-0.221-1.05-0.575-1.403C113.991,8.176,113.485,7.95,112.929,7.95L112.929,7.95 z"/></g></svg>